HIERARCHY
ROOT hip
{
	OFFSET 0.000000 0.000000 0.000000
	CHANNELS 6 Xposition Yposition Zposition Xrotation Zrotation Yrotation 
	JOINT abdomen
	{
		OFFSET 0.000000 3.422050 0.000000
		CHANNELS 3 Xrotation Zrotation Yrotation 
		JOINT chest
		{
			OFFSET 0.000000 8.486693 -0.684411
			CHANNELS 3 Xrotation Zrotation Yrotation 
			JOINT neck
			{
				OFFSET 0.000000 10.266162 -0.273764
				CHANNELS 3 Xrotation Zrotation Yrotation 
				JOINT head
				{
					OFFSET 0.000000 3.148285 0.000000
					CHANNELS 3 Xrotation Zrotation Yrotation 
					End Site
					{
						OFFSET 0.000000 3.148289 0.000000
					}
				}
			}
			JOINT lCollar
			{
				OFFSET 3.422053 6.707223 -0.821293
				CHANNELS 3 Yrotation Zrotation Xrotation 
				JOINT lShldr
				{
					OFFSET 3.285171 0.000000 0.000000
					CHANNELS 3 Zrotation Yrotation Xrotation 
					JOINT lForeArm
					{
						OFFSET 10.129278 0.000000 0.000000
						CHANNELS 3 Yrotation Zrotation Xrotation 
						JOINT lHand
						{
							OFFSET 8.486692 0.000000 0.000000
							CHANNELS 3 Zrotation Yrotation Xrotation 
							End Site
							{
								OFFSET 4.106464 0.000000 0.000000
							}
						}
					}
				}
			}
			JOINT rCollar
			{
				OFFSET -3.558935 6.707223 -0.821293
				CHANNELS 3 Yrotation Zrotation Xrotation 
				JOINT rShldr
				{
					OFFSET -3.148289 0.000000 0.000000
					CHANNELS 3 Zrotation Yrotation Xrotation 
					JOINT rForeArm
					{
						OFFSET -10.266159 0.000000 0.000000
						CHANNELS 3 Yrotation Zrotation Xrotation 
						JOINT rHand
						{
							OFFSET -8.349810 0.000000 0.000000
							CHANNELS 3 Zrotation Yrotation Xrotation 
							End Site
							{
								OFFSET -4.106464 0.000000 0.000000
							}
						}
					}
				}
			}
		}
	}
	JOINT lThigh
	{
		OFFSET 5.338403 -1.642589 1.368821
		CHANNELS 3 Xrotation Zrotation Yrotation 
		JOINT lShin
		{
			OFFSET -2.053232 -20.121670 0.000000
			CHANNELS 3 Xrotation Zrotation Yrotation 
			JOINT lFoot
			{
				OFFSET 0.000000 -19.300380 -1.231939
				CHANNELS 3 Xrotation Yrotation Zrotation 
				End Site
				{
					OFFSET 0.000000 -2.463878 4.653993
				}
			}
		}
	}
	JOINT rThigh
	{
		OFFSET -5.338403 -1.642589 1.368821
		CHANNELS 3 Xrotation Zrotation Yrotation 
		JOINT rShin
		{
			OFFSET 2.053232 -20.121670 0.000000
			CHANNELS 3 Xrotation Zrotation Yrotation 
			JOINT rFoot
			{
				OFFSET 0.000000 -19.300380 -1.231939
				CHANNELS 3 Xrotation Yrotation Zrotation 
				End Site
				{
					OFFSET 0.000000 -2.463878 4.653993
				}
			}
		}
	}
}
MOTION
Frames: 8
Frame Time: 0.033264
0.000000 43.528500 0.000000 0.000000 0.000000 0.000000 0.000000 0.000000 0.000000 0.000000 0.000000 0.000000 0.000000 0.000000 0.000000 0.000000 0.000000 0.000000 0.000000 0.000000 0.000000 0.000000 0.000000 0.000000 0.000000 0.000000 0.000000 0.000000 0.000000 0.000000 0.000000 0.000000 0.000000 0.000000 0.000000 0.000000 0.000000 0.000000 0.000000 0.000000 0.000000 0.000000 0.000000 0.000000 0.000000 0.000000 0.000000 0.000000 0.000000 0.000000 0.000000 0.000000 0.000000 0.000000 0.000000 0.000000 0.000000 0.000000 0.000000 0.000000 
-20.001892 6.994019 -7.001720 -30.812038 16.786551 8.291077 16.415091 3.166044 1.313928 24.097424 -1.718566 -0.400820 -0.002775 -14.003296 -8.002490 0.000085 -16.002317 -7.002004 -1.163737 4.194291 0.863290 -78.004250 -30.002743 30.002106 -78.002968 -4.000893 -12.001162 18.142241 5.221894 1.835748 10.133138 -7.463843 0.439259 32.346657 20.878160 27.784283 0.045171 -0.077067 -38.775551 22.363169 24.611261 -2.760932 -62.460026 16.414465 52.219357 122.172180 -16.102844 4.945967 -40.636841 -34.968655 -45.584682 -87.637459 4.445686 -0.356300 73.167274 3.690267 -2.949850 42.631809 28.308802 -3.071187 
-20.001892 6.994019 -7.001720 -30.812038 16.786551 8.291077 16.415091 3.166044 1.313928 24.097424 -1.718566 -0.400820 -0.002775 -14.003296 -8.002490 0.000085 -16.002317 -7.002004 -1.163737 4.194291 0.863290 -77.805107 -29.851509 29.960516 -78.002968 -4.000893 -12.001162 18.142241 5.221894 1.835748 10.133138 -7.463843 0.439259 32.346657 20.878160 27.784283 0.045171 -0.077067 -38.775551 22.179718 24.585123 -2.764676 -62.460026 16.414465 52.219357 122.172180 -16.102844 4.945967 -40.636841 -34.968655 -45.584682 -87.637459 4.445686 -0.356300 73.167274 3.690267 -2.949850 42.631809 28.308802 -3.071187 
-20.001892 6.994019 -7.001720 -30.812042 16.786552 8.291077 16.415091 3.166044 1.313928 24.097424 -1.718566 -0.400820 -0.002775 -14.003296 -8.002490 0.000085 -16.002317 -7.002004 -1.163737 4.194291 0.863290 -77.606239 -29.700039 29.919556 -78.002968 -4.000893 -12.001162 18.142241 5.221894 1.835748 10.133138 -7.463843 0.439259 32.346657 20.878160 27.784283 0.045171 -0.077067 -38.775558 21.996231 24.558971 -2.768330 -62.460026 16.414465 52.219357 122.172180 -16.102844 4.945968 -40.636841 -34.968655 -45.584682 -87.637459 4.445686 -0.356300 73.167274 3.690267 -2.949850 42.631809 28.308804 -3.071186 
-20.001892 6.994019 -7.001720 -30.812038 16.786552 8.291078 16.415091 3.166044 1.313928 24.097424 -1.718566 -0.400820 -0.002775 -14.003297 -8.002490 0.000085 -16.002317 -7.002004 -1.163737 4.194292 0.863290 -77.407700 -29.548359 29.879244 -78.002968 -4.000892 -12.001162 18.142241 5.221894 1.835748 10.133138 -7.463843 0.439260 32.346661 20.878162 27.784285 0.045171 -0.077067 -38.775555 21.812698 24.532787 -2.771892 -62.460026 16.414467 52.219360 122.172180 -16.102846 4.945967 -40.636841 -34.968655 -45.584682 -87.637474 4.445686 -0.356300 73.167274 3.690267 -2.949850 42.631809 28.308802 -3.071187 
-20.001892 6.994019 -7.001720 -30.812038 16.786552 8.291078 16.415091 3.166044 1.313928 24.097425 -1.718566 -0.400820 -0.002775 -14.003298 -8.002490 0.000085 -16.002319 -7.002005 -1.163737 4.194292 0.863290 -77.209450 -29.396479 29.839577 -78.002968 -4.000892 -12.001162 18.142242 5.221895 1.835748 10.133138 -7.463844 0.439260 32.346661 20.878160 27.784283 0.045171 -0.077067 -38.775551 21.629124 24.506592 -2.775363 -62.460026 16.414465 52.219360 122.172180 -16.102846 4.945967 -40.636845 -34.968655 -45.584682 -87.637459 4.445686 -0.356300 73.167282 3.690267 -2.949850 42.631813 28.308805 -3.071188 
-20.001892 6.994019 -7.001720 -30.812038 16.786552 8.291077 16.415091 3.166044 1.313928 24.097425 -1.718566 -0.400820 -0.002775 -14.003296 -8.002490 0.000085 -16.002319 -7.002004 -1.163737 4.194292 0.863290 -77.011475 -29.244371 29.800535 -78.002968 -4.000892 -12.001162 18.142242 5.221895 1.835748 10.133138 -7.463843 0.439259 32.346661 20.878162 27.784285 0.045171 -0.077067 -38.775551 21.445509 24.480371 -2.778744 -62.460026 16.414465 52.219357 122.172180 -16.102844 4.945968 -40.636841 -34.968655 -45.584682 -87.637459 4.445686 -0.356300 73.167274 3.690267 -2.949850 42.631809 28.308802 -3.071187 
-20.001892 6.994019 -7.001720 -30.812035 16.786551 8.291077 16.415089 3.166043 1.313928 24.097424 -1.718566 -0.400820 -0.002774 -14.003295 -8.002490 0.000085 -16.002317 -7.002004 -1.163736 4.194291 0.863290 -76.813820 -29.092058 29.762136 -78.002968 -4.000892 -12.001161 18.142241 5.221894 1.835747 10.133138 -7.463843 0.439259 32.346657 20.878159 27.784281 0.045171 -0.077067 -38.775551 21.261852 24.454128 -2.782031 -62.460011 16.414459 52.219357 122.172173 -16.102842 4.945966 -40.636837 -34.968647 -45.584675 -87.637459 4.445686 -0.356300 73.167267 3.690267 -2.949850 42.631802 28.308798 -3.071186 
